<mxfile host="app.diagrams.net" modified="2024-06-05T03:34:29.580Z" agent="Mozilla/5.0 (Windows NT 10.0; Win64; x64) AppleWebKit/537.36 (KHTML, like Gecko) Chrome/125.0.0.0 Safari/537.36" version="24.4.13" etag="EUD0foLmD7jF0FIZZK29" type="github">
  <diagram name="第1頁" id="BCCptsF3_hCJ_wJfq19S">
    <mxGraphModel>
      <root>
        <mxCell id="0" />
        <mxCell id="1" parent="0" />
      </root>
    </mxGraphModel>
  </diagram>
</mxfile>
